<svg xmlns="http://www.w3.org/2000/svg" viewBox="0 0 1440 320">
  <path fill="#273036" fill-opacity="1" d="M0,0L26.7,5.3C53.3,11,107,21,160,26.7C213.3,32,267,32,320,74.7C373.3,117,427,203,480,218.7C533.3,235,587,181,640,144C693.3,107,747,85,800,85.3C853.3,85,907,107,960,128C1013.3,149,1067,171,1120,154.7C1173.3,139,1227,85,1280,58.7C1333.3,32,1387,32,1413,32L1440,32L1440,320L1413.3,320C1386.7,320,1333,320,1280,320C1226.7,320,1173,320,1120,320C1066.7,320,1013,320,960,320C906.7,320,853,320,800,320C746.7,320,693,320,640,320C586.7,320,533,320,480,320C426.7,320,373,320,320,320C266.7,320,213,320,160,320C106.7,320,53,320,27,320L0,320Z"></path>
</svg>